#!OML:ASF H:\Dans Jumps\Project 1\Capture day 1\Session 1\subject.ASF
:FULLY-SPECIFIED
:DEGREES
272
root 0.407118 17.3479 -3.19061 7.19977 0.262233 -0.886035
lowerback 3.35122 0.915343 -0.514818
upperback 4.45678 1.19326 0.982844
thorax 2.66952 0.564155 1.28648
lowerneck -11.9229 -1.115 -2.31936
upperneck 34.263 -1.88012 2.571
head 13.6058 -0.765572 1.15604
rclavicle -7.25564e-015 -1.59028e-015
rhumerus -20.0095 -24.2471 -77.8424
rradius 20.8292
rwrist 39.9382
rhand -20.9682 -26.1097
rfingers 7.12502
rthumb 5.40508 -56.0208
lclavicle -7.25564e-015 -1.59028e-015
lhumerus -26.0578 0.570987 88.7569
lradius 16.4984
lwrist 7.69762
lhand -28.5513 -6.51426
lfingers 7.12502
lthumb -1.91834 23.4569
rfemur -25.2919 -1.00853 18.2107
rtibia 35.3685
rfoot -15.7068 0.877969
rtoes 12.192
lfemur -24.4688 6.49242 -18.4469
ltibia 33.31
lfoot -11.9983 6.33096
ltoes 0.679844
273
root 0.413235 17.3625 -3.17208 7.29609 0.219307 -0.906526
lowerback 3.29074 0.929415 -0.511547
upperback 4.42741 1.21208 0.989824
thorax 2.67242 0.57361 1.29235
lowerneck -11.9087 -1.11735 -2.33291
upperneck 34.1932 -1.88403 2.58608
head 13.5723 -0.767255 1.16302
rclavicle 4.37326e-015 -2.78299e-015
rhumerus -19.865 -23.7649 -78.0249
rradius 21.1277
rwrist 39.1532
rhand -21.0202 -26.1066
rfingers 7.12502
rthumb 5.35485 -56.019
lclavicle 4.37326e-015 -2.78299e-015
lhumerus -25.9781 0.26274 88.9007
lradius 16.8572
lwrist 8.42581
lhand -28.4983 -6.50995
lfingers 7.12502
lthumb -1.86715 23.4616
rfemur -25.1504 -0.958073 18.2103
rtibia 35.0257
rfoot -15.6046 0.871176
rtoes 12.3061
lfemur -24.329 6.51392 -18.4523
ltibia 32.9763
lfoot -11.9784 6.30889
ltoes 0.411692
274
root 0.419255 17.3771 -3.15324 7.39106 0.175517 -0.932418
lowerback 3.22505 0.941594 -0.500852
upperback 4.39636 1.22846 0.997422
thorax 2.67671 0.582057 1.29481
lowerneck -11.8982 -1.1198 -2.34973
upperneck 34.1239 -1.88843 2.60465
head 13.54 -0.769122 1.17189
rclavicle -8.99501e-015 4.96962e-015
rhumerus -19.7289 -23.2805 -78.2097
rradius 21.4152
rwrist 38.4274
rhand -21.085 -26.0894
rfingers 7.12502
rthumb 5.2923 -56.0033
lclavicle -8.99501e-015 4.96962e-015
lhumerus -25.9114 -0.0404405 89.0438
lradius 17.2129
lwrist 9.12358
lhand -28.3819 -6.40618
lfingers 7.12502
lthumb -1.75472 23.5663
rfemur -25.0049 -0.922528 18.2174
rtibia 34.6778
rfoot -15.5004 0.882602
rtoes 12.416
lfemur -24.1847 6.54883 -18.4513
ltibia 32.6424
lfoot -11.9684 6.27505
ltoes 0.162156
275
root 0.425126 17.3916 -3.13438 7.48332 0.132476 -0.964309
lowerback 3.15516 0.951255 -0.480813
upperback 4.36582 1.2416 1.0049
thorax 2.68417 0.589133 1.29206
lowerneck -11.8994 -1.12054 -2.35894
upperneck 34.0645 -1.8892 2.61394
head 13.5143 -0.769583 1.17633
rclavicle 1.39149e-014 8.74653e-015
rhumerus -19.5954 -22.7974 -78.4011
rradius 21.6895
rwrist 37.759
rhand -21.1616 -26.0729
rfingers 7.12502
rthumb 5.21834 -55.9887
lclavicle 1.39149e-014 8.74653e-015
lhumerus -25.854 -0.342427 89.1846
lradius 17.5652
lwrist 9.78813
lhand -28.1755 -6.16895
lfingers 7.12502
lthumb -1.5554 23.8051
rfemur -24.8543 -0.89908 18.2323
rtibia 34.3262
rfoot -15.3947 0.910594
rtoes 12.5383
lfemur -24.0372 6.59791 -18.4431
ltibia 32.3096
lfoot -11.9634 6.22842
ltoes -0.0652265
276
root 0.430939 17.4059 -3.11518 7.57099 0.0880518 -0.998052
lowerback 3.0767 0.95859 -0.454239
upperback 4.33746 1.25171 1.01049
thorax 2.69896 0.594871 1.28393
lowerneck -11.908 -1.11943 -2.36049
upperneck 34.0156 -1.88655 2.61469
head 13.4947 -0.768657 1.17664
rclavicle -7.65321e-015 -5.96354e-015
rhumerus -19.4627 -22.3398 -78.5942
rradius 21.9397
rwrist 37.1726
rhand -21.2473 -26.055
rfingers 7.12502
rthumb 5.13559 -55.9728
lclavicle -7.65321e-015 -5.96354e-015
lhumerus -25.8063 -0.653003 89.3257
lradius 17.9064
lwrist 10.4033
lhand -27.9777 -5.94492
lfingers 7.12502
lthumb -1.36434 24.0305
rfemur -24.6978 -0.887983 18.2502
rtibia 33.9731
rfoot -15.2893 0.956002
rtoes 12.6542
lfemur -23.8833 6.66048 -18.433
ltibia 31.9791
lfoot -11.96 6.17225
ltoes -0.262369
277
root 0.436531 17.4198 -3.09591 7.6547 0.0401571 -1.03526
lowerback 2.99584 0.963918 -0.422745
upperback 4.30727 1.25918 1.01494
thorax 2.71339 0.599462 1.27194
lowerneck -11.9202 -1.11411 -2.35572
upperneck 33.9818 -1.87804 2.61044
head 13.4821 -0.765024 1.17488
rclavicle -1.16786e-014 2.5842e-015
rhumerus -19.327 -21.928 -78.7846
rradius 22.1472
rwrist 36.6936
rhand -21.3262 -26.0394
rfingers 7.12502
rthumb 5.05936 -55.959
lclavicle -1.16786e-014 2.5842e-015
lhumerus -25.7667 -0.982998 89.4692
lradius 18.2445
lwrist 10.9882
lhand -27.7987 -5.65003
lfingers 7.12502
lthumb -1.19145 24.3264
rfemur -24.5381 -0.881205 18.2729
rtibia 33.6209
rfoot -15.1828 1.01134
rtoes 12.7686
lfemur -23.7263 6.73607 -18.4189
ltibia 31.6523
lfoot -11.9507 6.10817
ltoes -0.422412
278
root 0.44188 17.4334 -3.07674 7.7333 -0.0107421 -1.07407
lowerback 2.91339 0.966813 -0.389017
upperback 4.27659 1.26341 1.01856
thorax 2.7284 0.602503 1.25791
lowerneck -11.9338 -1.1035 -2.34526
upperneck 33.963 -1.86073 2.5977
head 13.476 -0.757949 1.17022
rclavicle 2.93207e-015 7.7526e-015
rhumerus -19.1876 -21.5523 -78.9753
rradius 22.3226
rwrist 36.3054
rhand -21.3866 -26.0378
rfingers 7.12502
rthumb 5.00102 -55.9587
lclavicle 2.93207e-015 7.7526e-015
lhumerus -25.7335 -1.3283 89.6148
lradius 18.5713
lwrist 11.5176
lhand -27.6175 -5.20903
lfingers 7.12502
lthumb -1.01651 24.7683
rfemur -24.3766 -0.876994 18.2984
rtibia 33.2725
rfoot -15.0763 1.07235
rtoes 12.8763
lfemur -23.5661 6.82102 -18.4026
ltibia 31.33
lfoot -11.9323 6.03941
ltoes -0.532493
279
root 0.446941 17.4465 -3.05764 7.80699 -0.0612861 -1.10777
lowerback 2.83075 0.964817 -0.361663
upperback 4.24445 1.26104 1.02109
thorax 2.74205 0.602096 1.24636
lowerneck -11.942 -1.08727 -2.33502
upperneck 33.9539 -1.83408 2.58079
head 13.4726 -0.74746 1.16545
rclavicle -3.47873e-016 -1.78906e-015
rhumerus -19.0427 -21.2262 -79.161
rradius 22.4585
rwrist 36.0285
rhand -21.4322 -26.025
rfingers 7.12502
rthumb 4.95705 -55.947
lclavicle -3.47873e-016 -1.78906e-015
lhumerus -25.7013 -1.66589 89.7564
lradius 18.8776
lwrist 11.9767
lhand -27.5059 -4.82533
lfingers 7.12502
lthumb -0.908684 25.1525
rfemur -24.2138 -0.875808 18.3189
rtibia 32.9306
rfoot -14.9718 1.13687
rtoes 12.9955
lfemur -23.4041 6.90862 -18.3913
ltibia 31.014
lfoot -11.902 5.9699
ltoes -0.602337
280
root 0.451716 17.4591 -3.03882 7.87509 -0.110585 -1.13678
lowerback 2.75185 0.957662 -0.341166
upperback 4.21162 1.25172 1.02362
thorax 2.75293 0.59803 1.23858
lowerneck -11.9493 -1.06742 -2.32943
upperneck 33.956 -1.80072 2.56237
head 13.4737 -0.734886 1.16202
rclavicle 8.19987e-015 5.96354e-015
rhumerus -18.8962 -20.9196 -79.3466
rradius 22.5706
rwrist 35.8187
rhand -21.4547 -26.0095
rfingers 7.12502
rthumb 4.93532 -55.932
lclavicle 8.19987e-015 5.96354e-015
lhumerus -25.6594 -1.98494 89.8903
lradius 19.126
lwrist 12.3206
lhand -27.4818 -4.63117
lfingers 7.12502
lthumb -0.885386 25.3467
rfemur -24.0507 -0.875196 18.3349
rtibia 32.5982
rfoot -14.8711 1.19818
rtoes 13.1089
lfemur -23.2402 6.99378 -18.3839
ltibia 30.7043
lfoot -11.8584 5.90178
ltoes -0.613067
281
root 0.456168 17.4713 -3.0204 7.93559 -0.153292 -1.16131
lowerback 2.6786 0.943986 -0.327585
upperback 4.17956 1.23361 1.02755
thorax 2.76147 0.589362 1.23603
lowerneck -11.9534 -1.04369 -2.3291
upperneck 33.966 -1.75947 2.54079
head 13.4774 -0.720015 1.15953
rclavicle -4.87022e-015 -2.98177e-015
rhumerus -18.7482 -20.6303 -79.5313
rradius 22.6648
rwrist 35.6543
rhand -21.45 -25.9906
rfingers 7.12502
rthumb 4.93985 -55.913
lclavicle -4.87022e-015 -2.98177e-015
lhumerus -25.6068 -2.27409 90.0162
lradius 19.3118
lwrist 12.5541
lhand -27.5127 -4.6802
lfingers 7.12502
lthumb -0.915242 25.2976
rfemur -23.8859 -0.876914 18.3472
rtibia 32.2778
rfoot -14.7759 1.25316
rtoes 13.2284
lfemur -23.0729 7.06824 -18.3788
ltibia 30.4004
lfoot -11.8035 5.8369
ltoes -0.573782
282
root 0.46038 17.483 -3.00215 7.98609 -0.192723 -1.17929
lowerback 2.61213 0.926932 -0.322276
upperback 4.14893 1.21093 1.03156
thorax 2.76764 0.578179 1.23807
lowerneck -11.9463 -1.01958 -2.3352
upperneck 33.9742 -1.71657 2.52044
head 13.4778 -0.705188 1.1589
rclavicle -1.00386e-014 4.17448e-015
rhumerus -18.6048 -20.3643 -79.7114
rradius 22.7435
rwrist 35.5211
rhand -21.4271 -25.9588
rfingers 7.12502
rthumb 4.96195 -55.8807
lclavicle -1.00386e-014 4.17448e-015
lhumerus -25.5424 -2.5233 90.1294
lradius 19.4256
lwrist 12.6462
lhand -27.5721 -4.86533
lfingers 7.12502
lthumb -0.972649 25.1122
rfemur -23.7161 -0.878831 18.3525
rtibia 31.9706
rfoot -14.6887 1.30386
rtoes 13.337
lfemur -22.8978 7.13056 -18.3781
ltibia 30.1024
lfoot -11.7394 5.78163
ltoes -0.496443
283
root 0.464269 17.4942 -2.98415 8.02786 -0.227052 -1.18919
lowerback 2.55222 0.906751 -0.327562
upperback 4.11945 1.18402 1.03537
thorax 2.77122 0.564596 1.24572
lowerneck -11.942 -0.994217 -2.33567
upperneck 33.9896 -1.66962 2.48897
head 13.4817 -0.68932 1.15354
rclavicle 3.52843e-015 4.37326e-015
rhumerus -18.4732 -20.108 -79.8888
rradius 22.8224
rwrist 35.3847
rhand -21.3776 -25.9301
rfingers 7.12502
rthumb 5.00971 -55.8509
lclavicle 3.52843e-015 4.37326e-015
lhumerus -25.4663 -2.73453 90.2292
lradius 19.482
lwrist 12.6381
lhand -27.574 -5.00318
lfingers 7.12502
lthumb -0.974486 24.9743
rfemur -23.5434 -0.879618 18.3498
rtibia 31.6776
rfoot -14.6088 1.34471
rtoes 13.4198
lfemur -22.717 7.17722 -18.383
ltibia 29.8106
lfoot -11.6678 5.7373
ltoes -0.391372
284
root 0.467897 17.5049 -2.96622 8.05887 -0.259326 -1.19438
lowerback 2.49565 0.8855 -0.33912
upperback 4.09343 1.15564 1.03929
thorax 2.77644 0.55008 1.25693
lowerneck -11.9292 -0.971319 -2.33966
upperneck 34.0019 -1.62531 2.45707
head 13.4825 -0.675166 1.14821
rclavicle 8.94531e-015 -2.98177e-015
rhumerus -18.3522 -19.8786 -80.0606
rradius 22.8953
rwrist 35.2515
rhand -21.3264 -25.8899
rfingers 7.12502
rthumb 5.05916 -55.8095
lclavicle 8.94531e-015 -2.98177e-015
lhumerus -25.383 -2.90735 90.3167
lradius 19.4926
lwrist 12.5342
lhand -27.5144 -5.01764
lfingers 7.12502
lthumb -0.916956 24.9601
rfemur -23.3663 -0.877452 18.343
rtibia 31.3988
rfoot -14.5354 1.37631
rtoes 13.4652
lfemur -22.5277 7.21043 -18.3898
ltibia 29.526
lfoot -11.5918 5.70416
ltoes -0.2764
